<svg xmlns="http://www.w3.org/2000/svg" width="41" height="32" viewBox="0 0 41 32"><path fill="#444" d="M2.125 12.18h1.59l-.805-1.93zm11.09 9.39l1.32-1.41-1.25-1.41h-2.91v.874h2.535v.982h-2.536v.964h2.84zm2.82-1.39l1.77 1.963v-3.875zm5.144-.84q0-.59-.715-.59h-1.5v1.232h1.482q.732 0 .732-.643zm5.16-.072q0-.518-.75-.518h-1.465v1.09h1.446q.77 0 .77-.572zm-4.965-8.322q0-.518-.75-.518H19.16v1.07h1.447q.768 0 .768-.553zm8.196 1.233h1.59l-.786-1.93zM12.483 9.41v4.84h-1.18v-3.786L9.625 14.25H8.606l-1.68-3.786v3.786H4.57l-.446-1.07h-2.41l-.447 1.07H.017l2.07-4.84h1.715L5.766 14V9.41H7.66l1.517 3.287 1.375-3.286h1.93zm9.93 9.93q0 .356-.1.624t-.25.446-.4.295-.465.18-.563.08-.563.017-.58-.01-.526-.008v1.625h-2.25l-1.43-1.608-1.48 1.607H9.23v-4.84h4.643l1.43 1.59 1.463-1.59h3.696q1.946 0 1.946 1.59zm-5.198-6.09v1H13.34V9.41h3.874v1.02H14.5v.874h2.643v.982H14.5v.964h2.714zm23.93 9.982v4.09q0 .98-.69 1.687t-1.67.704H2.357q-.982 0-1.67-.705t-.688-1.69V15.215H1.98l.446-1.09h.982l.446 1.09h3.893v-.82l.34.82h2.017l.357-.84v.84h9.662v-1.768l.18-.018q.178 0 .178.25v1.536h4.982v-.41q.41.213.982.32t.938.116 1.125-.01.92-.017l.446-1.09h1l.446 1.09h4.053v-1.036l.607 1.036h3.25v-6.75h-3.214v.786l-.446-.787h-3.304v.786l-.41-.787h-4.447q-1.233 0-1.947.393v-.393h-3.07v.393q-.43-.393-1.305-.393H9.874l-.768 1.732-.768-1.732H4.802v.786l-.393-.787H1.39L0 11.66V4.676q0-.982.688-1.688t1.67-.706h36.43q.98 0 1.67.705t.687 1.687v12.107H39q-.91 0-1.446.393v-.393h-3.16q-.983 0-1.394.393v-.393h-5.643v.393q-.554-.393-1.554-.393H22.07v.393q-.41-.393-1.624-.393h-4.18l-.963 1.036-.893-1.036H8.178v6.75h6.125l.982-1.054.93 1.054h3.767v-1.59h.375q1.054 0 1.607-.23v1.82h3.107v-1.768h.144q.143 0 .18.036t.035.18v1.553h9.445q1.018 0 1.57-.43v.43h3q1.072 0 1.697-.304zm-13.537-4.178q0 .41-.214.768t-.607.518q.446.16.607.464t.16.82v.965h-1.16v-.805q0-.59-.214-.777t-.822-.188h-1.232v1.768h-1.16v-4.84h2.75q.856 0 1.374.27t.518 1.035zm-4.946-8.34q0 .43-.222.786t-.598.518q.464.16.616.455t.152.83v.946h-1.16q0-.162.008-.474t0-.446-.054-.33-.152-.286-.313-.152-.527-.063h-1.25v1.75h-1.143V9.41l2.732.018q.874 0 1.392.26t.518 1.026zm9.447 10.875v1H28.25v-4.84h3.857v1H29.41v.875h2.644v.982H29.41v.964zM24.5 9.41v4.84h-1.18V9.41h1.18zm12.375 11.644q0 1.536-1.82 1.536h-2.25v-1.036h2.25q.606 0 .606-.446 0-.286-.303-.375t-.74-.09-.885-.062-.75-.4-.304-.983q0-.696.464-1.07t1.18-.376h2.32v1.02h-2.125q-.643 0-.643.445 0 .286.313.366t.75.072.875.045.75.384.313.974zm4.268-.893v1.805q-.43.625-1.57.625H37.34v-1.036h2.232q.59 0 .59-.446 0-.232-.224-.34t-.554-.097-.714-.035-.714-.143-.554-.43-.223-.865q0-.696.472-1.07t1.188-.376h2.304v1.02h-2.107q-.643 0-.643.445 0 .357.518.393t1.223.09 1.01.463zM38.196 9.43v4.82h-1.643l-2.18-3.625v3.625h-2.356l-.464-1.07H29.16l-.446 1.07h-1.34q-2.303 0-2.303-2.375 0-2.464 2.376-2.464h1.125v1.055q-.124 0-.5-.018t-.508-.01-.41.037-.385.116-.26.24-.204.412-.054.598q0 .68.24 1.036t.884.357h.518l1.643-3.804h1.732L33.213 14V9.43h1.768l2.037 3.356V9.43h1.18z"/></svg>