<svg xmlns="http://www.w3.org/2000/svg" width="15" height="16" viewBox="0 0 15 16"><path fill="#444" d="M6.563 7.107q0 .32.286.63t.69.606.81.656.687.928.286 1.268q0 .804-.43 1.545-.642 1.09-1.883 1.604t-2.66.513q-1.18 0-2.202-.37t-1.53-1.23q-.33-.535-.33-1.17 0-.722.396-1.338T1.742 9.72q1.17-.732 3.607-.893-.287-.376-.425-.662t-.138-.652q0-.32.188-.76-.41.037-.607.037-1.32 0-2.228-.862T1.234 3.75q0-.732.32-1.42t.885-1.17q.687-.59 1.628-.875T6.01-.003h3.732L8.51.783H7.34q.66.563 1 1.188t.34 1.43q0 .643-.22 1.156t-.527.83-.62.58-.532.55-.218.588zM5.26 6.25q.338 0 .695-.147t.59-.388q.472-.51.472-1.42 0-.518-.152-1.116t-.433-1.157-.754-.924T4.633.732q-.375 0-.737.174t-.585.47q-.42.526-.42 1.428 0 .41.09.87t.28.92.465.827.67.598.862.232zm.017 7.795q.518 0 .996-.116t.884-.35.652-.65.245-.974q0-.223-.063-.438t-.13-.375-.24-.37-.263-.314-.345-.31-.326-.258-.372-.268-.326-.232q-.143-.018-.43-.018-.472 0-.937.063t-.96.223-.866.41-.613.666-.24.942q0 .625.312 1.103t.816.742 1.063.393 1.137.13zm7.232-7.822h1.9v.964h-1.9v1.955h-.94V7.187H9.68v-.964h1.893V4.285h.94v1.938z"/></svg>