<svg xmlns="http://www.w3.org/2000/svg" width="41" height="32" viewBox="0 0 41 32"><path fill="#444" d="M11.982 16.66h-.232q-.84 0-.84.572 0 .393.358.393.304 0 .5-.268t.214-.696zm7.054-.642h1.107v-.054q.018-.07.01-.116t-.02-.125-.035-.143-.08-.116-.134-.09-.205-.035q-.5 0-.644.678zm9.643.643h-.215q-.857 0-.857.572 0 .393.357.393.304 0 .5-.268t.214-.696zm5.695-.464q0-.732-.536-.732-.34 0-.555.357t-.214.912q0 .75.5.75.358 0 .58-.357t.224-.93zM8.57 13.68h1.555l-.786 4.678h-1l.57-3.59-1.268 3.59h-.696l-.07-3.57-.608 3.57h-.946l.786-4.68h1.446l.036 2.912zm4.52 1.91q0 .106-.072.75-.286 1.803-.304 2.017h-.84l.02-.393q-.358.464-1.037.464-.41 0-.67-.286t-.26-.75q0-.696.465-1.08t1.304-.384q.25 0 .41.018 0-.054.01-.098t.018-.08.01-.054q0-.357-.644-.357-.518 0-1.054.18 0-.072.125-.858.68-.197 1.197-.197 1.32 0 1.32 1.107zm2.785-1.036l-.143.875q-.393-.055-.732-.055-.482 0-.482.304 0 .142.08.213t.384.196q.714.338.714 1.07 0 1.286-1.554 1.268-.607 0-1.036-.107 0-.035.125-.874.52.143.912.143.57 0 .57-.34 0-.125-.08-.205t-.383-.223q-.77-.357-.77-1.054 0-1.286 1.5-1.286.537 0 .894.07zm1.57 0h.5l-.124.93h-.517q-.036.303-.116.722t-.125.688-.045.32q0 .287.34.287.142 0 .285-.035l-.143.84q-.376.124-.715.124-.768 0-.804-.84 0-.214.144-1 .054-.357.446-2.607h.982zm3.626 1.303q0 .41-.124.93h-1.982q-.054.392.18.588t.678.196q.536 0 1.036-.25l-.16.965q-.537.143-1.02.143-1.695 0-1.695-1.696 0-.982.49-1.616t1.242-.634q.625 0 .99.375t.367 1zm2.484-1.32q-.232.41-.393 1.106-.392-.036-.553.43t-.446 2.285h-1l.055-.25q.393-2.32.518-3.554h.91l-.053.59q.25-.376.455-.528t.51-.08zm3.34-.733l-.162 1.018q-.5-.25-.893-.25-.555 0-.912.49t-.357 1.26q0 .536.242.84t.688.303q.375 0 .857-.232l-.18 1.054q-.5.143-.892.143-.804 0-1.277-.545t-.473-1.473q0-1.25.634-2.045t1.633-.795q.464 0 1.09.232zm2.892 1.785q0 .32-.07.75-.233 1.41-.305 2.017h-.82l.018-.393q-.357.464-1.054.464-.41 0-.66-.286t-.25-.75q0-.696.454-1.08t1.295-.384q.268 0 .41.018.037-.125.037-.232 0-.357-.643-.357-.518 0-1.054.18 0-.072.143-.858.68-.197 1.196-.197 1.304 0 1.304 1.107zm2.518-1.054q-.25.43-.375 1.107-.412-.036-.564.41t-.455 2.305h-1l.055-.25q.34-1.857.518-3.554h.93q0 .196-.072.59.27-.376.474-.528t.49-.08zm2.517-.857h1l-.767 4.678h-.946l.054-.34q-.41.412-.928.412-.554 0-.884-.43t-.33-1.142q0-.946.49-1.643t1.153-.696q.555 0 .947.517zM36.805 16q0-2.643-1.295-4.875T31.972 7.59 27.09 6.284q-3.233 0-5.858 1.964 2.268 2.07 3.054 5.07h-.893q-.786-2.68-2.82-4.518-2.037 1.84-2.822 4.518h-.892q.786-3 3.054-5.07-2.625-1.965-5.857-1.965-2.643 0-4.884 1.304t-3.535 3.535T4.34 16t1.295 4.875T9.17 24.41t4.885 1.305q3.232 0 5.857-1.964-2.143-1.98-2.946-4.713h.893q.82 2.464 2.713 4.16 1.893-1.695 2.714-4.16h.893q-.804 2.732-2.946 4.714 2.625 1.965 5.857 1.965 2.644 0 4.885-1.304t3.536-3.535T36.807 16zm4.34-11.43V27.43q0 .93-.68 1.607t-1.607.68H2.287q-.93 0-1.608-.68T0 27.428V4.57q0-.928.68-1.606t1.606-.68h36.57q.93 0 1.608.68t.68 1.607z"/></svg>