<svg xmlns="http://www.w3.org/2000/svg" width="41" height="32" viewBox="0 0 41 32"><path fill="#444" d="M5.75 15.125h-.268q-.34 0-.34-.32 0-.5.34-1.52.09-.267.268-.347t.5-.08q1.375 0 1.375.875 0 .732-.545 1.063t-1.33.33zM11.857 18q-.84 0-.84-.518 0-1.107 2.197-1.107l.054.054q-.09 1.57-1.41 1.57zm13.822-2.84h-.27q-.338 0-.338-.338 0-.5.34-1.518.088-.268.258-.34t.51-.07q1.374 0 1.374.875 0 .73-.545 1.062t-1.33.33zm6.106 2.858q-.84 0-.84-.536 0-1.107 2.197-1.107l.054.054q-.09 1.588-1.41 1.588zM6.66 11.464H4.376q-.143 0-.26.07t-.15.135-.126.222q-.055.125-.805 3.393t-.75 3.43q0 .124.098.222t.24.098h1.108q.447 0 .58-.616l.27-1.233.58-.616q.838 0 1.562-.133T8.16 16t1.134-.94.42-1.508q0-.643-.26-1.09t-.73-.65-.956-.278-1.107-.07zm6.18 1.715q-.68 0-1.322.106-.036 0-.152.018t-.16.027l-.135.028-.133.036-.116.054-.115.07-.09.09-.08.125-.07.16q-.16.52-.16.697t.16.18q.09 0 .384-.09t.347-.107q.536-.143 1.036-.143 1.32 0 1.32.643 0 .196-.178.25-.143.036-.32.054t-.385.027-.313.027q-.68.072-1.152.18t-1.01.348-.812.696-.277 1.116q0 .68.464 1.063t1.143.384q.43 0 .813-.116t.59-.23.687-.42q-.054.124-.054.267t.097.24.223.1h1q.018-.02.125-.064t.134-.063.088-.063.09-.098.044-.144l.804-3.464q.07-.232.07-.536 0-1.446-2.588-1.446zm9.428.088h-1.32q-.394 0-.697.41-.088.126-.526.912t-.83 1.455-.464.688l-.09-.07q0-1.376-.48-2.965-.02-.09-.064-.152t-.107-.116-.117-.09-.152-.053-.15-.027-.17-.018-.162-.01h-.33q-.68 0-.68.376l.02.09q.088.945.445 2.695t.446 2.554q.035.286.035.43 0 .338-.545 1.097t-.545 1.045q0 .23.714.23 1.088 0 1.356-.445l4.375-7.41q.18-.358.18-.465 0-.16-.143-.16zm4.32-1.768h-2.303q-.32 0-.518.41-.107.233-.83 3.42t-.723 3.403q0 .357.768.357h.455l.17-.018.152-.036.15-.054.117-.08.098-.107.054-.152.374-1.625q.036-.18.188-.304t.348-.125q.84 0 1.563-.126t1.438-.438 1.135-.938.42-1.5q0-.643-.26-1.09t-.73-.65-.956-.278-1.108-.07zm6.18 1.68q-.464 0-1.32.106-.68.107-.858.286-.125.143-.196.34-.143.428-.143.695 0 .18.144.18.018 0 .732-.215.536-.143 1.036-.143 1.32 0 1.32.642 0 .214-.178.25-.07.018-1.018.125-.68.07-1.152.18t-1.01.347-.812.696-.277 1.116.464 1.045 1.142.385q.43 0 .804-.107t.607-.232.68-.43q-.055.27-.055.287 0 .09.036.152t.116.098.143.063.188.036.17.01h.314q.75 0 .857-.447l.805-3.464q.054-.267.054-.553 0-1.446-2.59-1.446zm5.75-1.626h-.982q-.446 0-.59.714-.178.786-.65 2.982t-.76 3.393v.09q0 .285.286.32h1.036q.18 0 .33-.116t.188-.295l1.482-6.68h-.018l.018-.088q0-.125-.098-.223t-.24-.097zm2.625-6.983V27.43q0 .93-.68 1.607t-1.606.68H2.287q-.93 0-1.608-.68T0 27.428V4.57q0-.928.68-1.606t1.606-.68h36.57q.93 0 1.608.68t.68 1.607z"/></svg>