<svg xmlns="http://www.w3.org/2000/svg" width="15" height="16" viewBox="0 0 15 16"><path fill="#444" d="M14.464 3.643q-.598.875-1.446 1.49.01.126.01.376 0 1.16-.34 2.316t-1.03 2.22-1.648 1.878-2.304 1.304-2.884.487q-2.42 0-4.43-1.295.314.036.697.036 2.008 0 3.58-1.232-.94-.018-1.68-.576T1.972 9.224q.295.045.545.045.384 0 .76-.1-1-.204-1.657-.995T.964 6.34v-.036q.607.34 1.304.366-.59-.393-.938-1.027T.982 4.268q0-.786.393-1.455 1.08 1.33 2.63 2.13t3.316.887q-.07-.34-.07-.66 0-1.197.844-2.04t2.04-.845q1.25 0 2.107.91.974-.187 1.83-.695-.33 1.027-1.267 1.59.83-.09 1.66-.447z"/></svg>