<svg xmlns="http://www.w3.org/2000/svg" width="41" height="32" viewBox="0 0 41 32"><path fill="#444" d="M35.268 17.68h-2.464q.25-.662 1.18-3.197l.053-.16q.07-.18.18-.465t.16-.464l.214.982zM9.482 16.517L8.446 11.25q-.196-.964-1.34-.964H2.322l-.035.232q5.554 1.41 7.196 6zm3.197-6.232l-2.894 7.82-.304-1.588q-.464-1.25-1.518-2.313t-2.34-1.58l2.412 9.107h3.125l4.662-11.446H12.68zm2.48 11.464h2.965l1.857-11.464h-2.964zm13.715-11.18q-1.232-.48-2.66-.48-2.197 0-3.59 1.053t-1.41 2.732q-.02 1.82 2.588 3.107.857.41 1.196.732t.338.696q0 .536-.536.82t-1.232.287q-1.536 0-2.786-.59l-.393-.195-.41 2.57q1.32.608 3.304.608 2.32.018 3.723-1.054T28.445 18q0-1.894-2.5-3.108-.875-.446-1.268-.75t-.393-.68q0-.392.438-.687t1.26-.295q1.25-.018 2.213.43l.268.142zm7.59-.284h-2.287q-1.16 0-1.554.964l-4.393 10.5h3.108l.625-1.714h3.786q.088.393.356 1.714h2.75zm4.678-5.715V27.43q0 .93-.68 1.607t-1.606.68H2.287q-.93 0-1.608-.68T0 27.428V4.57q0-.928.68-1.606t1.606-.68h36.57q.93 0 1.608.68t.68 1.607z"/></svg>