<svg xmlns="http://www.w3.org/2000/svg" width="16" height="16" viewBox="0 0 16 16"><path fill="#444" d="M8.67 11.107v1.884q0 .6-.348.6-.205 0-.402-.197v-2.688q.196-.196.402-.196.348 0 .348.597zm3.018.01v.41h-.804v-.41q0-.608.402-.608t.402.606zM3.063 9.17h.955v-.84H1.232v.84h.938v5.08h.893V9.17zm2.57 5.08h.796V9.84h-.796v3.374q-.268.375-.51.375-.16 0-.187-.19-.01-.026-.01-.312v-3.25h-.794v3.49q0 .44.07.653.108.33.52.33.428 0 .91-.544v.482zm3.83-1.32v-1.76q0-.652-.08-.884-.15-.5-.633-.5-.446 0-.83.482V8.33h-.795v5.92h.795v-.43q.402.492.83.492.482 0 .634-.49.08-.242.08-.894zm3.02-.09v-.117h-.814q0 .455-.02.545-.062.32-.356.32-.41 0-.41-.615v-.777h1.597v-.92q0-.705-.24-1.036-.348-.455-.946-.455-.607 0-.955.455-.25.33-.25 1.036v1.545q0 .706.258 1.037.348.455.964.455.643 0 .964-.473.16-.242.188-.483.018-.08.018-.518zm-5.43-8.152V2.813q0-.616-.383-.616t-.384.616v1.875q0 .625.384.625t.384-.625zm6.42 6.705q0 2.09-.232 3.125-.124.527-.517.884t-.91.41q-1.644.19-4.956.19t-4.955-.19q-.518-.053-.915-.41t-.513-.884q-.232-1-.232-3.125 0-2.09.232-3.125.125-.527.518-.884t.92-.42q1.634-.18 4.946-.18t4.955.18q.518.063.915.42t.513.884q.233 1 .233 3.125zM4.563 0h.91l-1.08 3.563v2.42h-.892v-2.42q-.124-.66-.544-1.893-.33-.92-.58-1.67h.946l.634 2.348zm3.303 2.973v1.563q0 .723-.25 1.054-.33.455-.946.455-.598 0-.938-.455-.25-.34-.25-1.054V2.973q0-.714.25-1.045.34-.455.938-.455.616 0 .946.455.25.33.25 1.045zm2.99-1.446v4.455h-.812v-.49q-.473.553-.92.553-.41 0-.527-.33-.07-.214-.07-.67V1.527h.812v3.277q0 .295.008.313.027.196.188.196.24 0 .51-.384V1.526h.812z"/></svg>